<?xml version="1.0" standalone="no"?>
<!DOCTYPE svg PUBLIC "-//W3C//DTD SVG 20010904//EN"
 "http://www.w3.org/TR/2001/REC-SVG-20010904/DTD/svg10.dtd">
<svg version="1.0" xmlns="http://www.w3.org/2000/svg"
 width="600.000000pt" height="480.000000pt" viewBox="0 0 600.000000 480.000000"
 preserveAspectRatio="xMidYMid meet">

<g transform="translate(0.000000,480.000000) scale(0.100000,-0.100000)"
fill="#000000" stroke="none">
<path d="M2827 4129 c-48 -5 -141 -20 -205 -35 -443 -99 -829 -367 -1074 -744
-65 -99 -152 -270 -139 -270 5 0 28 38 50 85 88 181 244 385 399 521 493 432
1170 551 1777 312 388 -153 728 -466 907 -835 42 -88 71 -115 37 -35 -33 76
-117 217 -181 304 -365 492 -960 756 -1571 697z"/>
<path d="M2860 3934 c-356 -42 -664 -180 -903 -404 -131 -123 -249 -275 -316
-407 l-21 -43 29 0 c26 0 34 8 65 64 94 168 260 350 424 466 528 372 1207 369
1737 -8 152 -109 320 -296 411 -458 32 -57 39 -64 66 -64 l30 0 -37 68 c-211
386 -609 674 -1053 763 -94 18 -354 32 -432 23z"/>
<path d="M2802 3640 c-1 -14 3 -43 7 -65 6 -26 9 -31 9 -15 1 14 -3 43 -7 65
-6 26 -9 31 -9 15z"/>
<path d="M3192 3635 c0 -16 2 -22 5 -12 2 9 2 23 0 30 -3 6 -5 -1 -5 -18z"/>
<path d="M2604 3603 c21 -67 65 -186 65 -177 1 13 -57 185 -65 193 -4 3 -3 -4
0 -16z"/>
<path d="M3351 3498 c-23 -68 -41 -128 -40 -133 0 -6 20 48 45 119 24 71 42
131 40 133 -2 3 -22 -51 -45 -119z"/>
<path d="M3171 3515 c-8 -48 -11 -88 -9 -91 3 -2 10 34 18 82 7 47 10 87 8 90
-3 2 -10 -34 -17 -81z"/>
<path d="M2421 3535 c0 -5 31 -71 69 -145 38 -74 69 -130 69 -125 0 6 -31 71
-69 145 -38 74 -69 131 -69 125z"/>
<path d="M3507 3404 c-37 -74 -67 -138 -66 -142 0 -4 32 55 70 132 39 76 69
140 67 142 -2 2 -34 -57 -71 -132z"/>
<path d="M2822 3505 c0 -16 2 -22 5 -12 2 9 2 23 0 30 -3 6 -5 -1 -5 -18z"/>
<path d="M2832 3440 c0 -19 2 -27 5 -17 2 9 2 25 0 35 -3 9 -5 1 -5 -18z"/>
<path d="M2246 3429 c6 -8 50 -67 98 -133 47 -65 86 -115 86 -111 0 10 -170
244 -184 252 -8 5 -8 3 0 -8z"/>
<path d="M3697 3368 c-89 -122 -131 -184 -115 -168 21 21 180 240 173 240 -3
0 -29 -33 -58 -72z"/>
<path d="M3152 3385 c0 -16 2 -22 5 -12 2 9 2 23 0 30 -3 6 -5 -1 -5 -18z"/>
<path d="M2842 3375 c0 -16 2 -22 5 -12 2 9 2 23 0 30 -3 6 -5 -1 -5 -18z"/>
<path d="M2691 3334 c0 -11 3 -14 6 -6 3 7 2 16 -1 19 -3 4 -6 -2 -5 -13z"/>
<path d="M2200 3195 c63 -63 117 -115 120 -115 2 0 -47 52 -110 115 -63 63
-117 115 -120 115 -2 0 47 -52 110 -115z"/>
<path d="M3790 3193 l-115 -118 118 115 c64 63 117 116 117 117 0 8 -13 -5
-120 -114z"/>
<path d="M1960 3156 c0 -7 100 -79 105 -75 2 3 -21 21 -51 42 -30 21 -54 36
-54 33z"/>
<path d="M3981 3120 c-30 -22 -51 -40 -47 -40 10 0 94 58 101 70 9 15 4 12
-54 -30z"/>
<path d="M790 2445 l0 -545 2210 0 2210 0 0 545 0 545 -2210 0 -2210 0 0 -545z
m4360 -5 l0 -490 -2150 0 -2150 0 0 490 0 490 2150 0 2150 0 0 -490z"/>
<path d="M1540 2690 c0 -30 0 -30 55 -30 l55 0 0 -260 0 -260 30 0 30 0 0 260
0 260 56 0 c54 0 55 0 52 28 l-3 27 -137 3 -138 3 0 -31z"/>
<path d="M1851 2693 c0 -16 17 -145 37 -288 l37 -260 45 0 45 0 26 180 c15 99
28 178 29 175 1 -3 14 -84 29 -180 l26 -175 43 -3 c23 -2 42 -1 42 2 0 8 70
520 75 549 4 24 2 27 -25 27 -17 0 -30 -4 -30 -8 0 -20 -60 -455 -63 -458 -2
-2 -17 101 -33 229 l-29 232 -32 3 c-36 4 -30 28 -68 -267 -14 -107 -27 -196
-29 -198 -1 -2 -13 70 -25 159 -44 329 -40 308 -72 308 -25 0 -29 -4 -28 -27z"/>
<path d="M2340 2430 l0 -290 30 0 30 0 0 290 0 290 -30 0 -30 0 0 -290z"/>
<path d="M2470 2429 l0 -290 28 3 27 3 3 220 3 220 60 -185 c32 -102 64 -202
69 -222 10 -35 14 -38 45 -38 l35 0 0 290 0 290 -30 0 -30 0 -1 -202 c0 -128
-4 -194 -9 -178 -5 14 -34 105 -65 203 l-56 177 -40 0 -39 0 0 -291z"/>
<path d="M2910 2691 c0 -29 2 -30 53 -33 l52 -3 3 -257 2 -258 30 0 30 0 0
260 0 260 56 0 c54 0 55 0 52 28 l-3 27 -137 3 -138 3 0 -30z"/>
<path d="M3230 2430 l0 -290 120 0 120 0 0 30 0 30 -90 0 -90 0 0 100 0 100
70 0 70 0 0 30 c0 29 0 29 -67 32 l-68 3 -3 98 -3 97 91 0 91 0 -3 28 -3 27
-117 3 -118 3 0 -291z"/>
<path d="M3524 2703 c3 -10 28 -74 54 -142 l49 -123 -57 -147 -58 -146 25 -3
c14 -2 29 0 33 5 4 4 27 58 51 120 23 62 45 110 49 108 4 -2 26 -56 50 -120
l43 -115 34 0 c18 0 33 1 33 3 0 1 -25 65 -55 142 -30 77 -55 145 -55 152 0 6
23 70 50 142 28 72 50 133 50 136 0 3 -13 5 -28 5 -27 0 -30 -6 -73 -116 l-45
-116 -44 113 c-44 111 -46 114 -78 117 -29 3 -33 1 -28 -15z"/>
<path d="M3860 2691 c0 -29 2 -30 53 -33 l52 -3 3 -257 2 -258 30 0 30 0 0
260 0 260 50 0 c49 0 50 1 50 30 l0 30 -135 0 -135 0 0 -29z"/>
<path d="M4229 2705 c-29 -16 -59 -79 -59 -126 0 -53 27 -97 109 -177 78 -75
81 -79 81 -124 0 -62 -23 -85 -80 -79 -25 3 -50 41 -50 77 0 31 -3 34 -30 34
-28 0 -30 -3 -30 -35 0 -47 22 -98 51 -119 27 -19 106 -21 143 -4 28 12 66 81
66 119 0 61 -21 98 -94 166 -82 76 -98 100 -98 148 0 57 17 77 65 73 41 -3 43
-5 57 -50 12 -38 20 -48 37 -48 30 0 35 12 24 62 -14 63 -57 98 -119 98 -26
-1 -59 -7 -73 -15z"/>
<path d="M260 2791 c0 -5 56 -131 125 -279 69 -149 125 -274 125 -279 0 -5
-56 -130 -125 -278 -69 -147 -125 -272 -125 -277 0 -4 191 -8 425 -8 l425 0 0
85 0 85 -200 0 -200 0 0 480 0 480 -225 0 c-131 0 -225 -4 -225 -9z m400 -531
l0 -480 195 0 195 0 0 -25 0 -25 -354 0 -355 0 29 63 c15 34 67 145 114 246
47 101 86 188 86 193 0 5 -41 98 -91 206 -51 108 -102 221 -115 250 l-24 52
160 0 160 0 0 -480z"/>
<path d="M5290 2320 l0 -480 -200 0 -200 0 0 -85 0 -85 425 0 c234 0 425 4
425 8 0 5 -56 130 -125 277 -69 148 -125 273 -125 278 0 5 56 130 125 279 69
148 125 274 125 279 0 5 -94 9 -225 9 l-225 0 0 -480z m346 368 c-13 -29 -64
-142 -115 -250 -50 -108 -91 -201 -91 -206 0 -5 39 -92 86 -193 47 -101 99
-212 114 -246 l29 -63 -355 0 -354 0 0 25 0 25 195 0 195 0 0 480 0 480 160 0
160 0 -24 -52z"/>
<path d="M1386 1753 c165 -395 455 -712 821 -897 374 -189 771 -240 1172 -150
507 114 941 452 1170 911 65 131 83 175 69 171 -6 -2 -28 -42 -48 -89 -154
-352 -437 -649 -790 -828 -371 -189 -779 -238 -1181 -142 -510 121 -962 497
-1169 970 -20 47 -42 87 -48 89 -8 2 -6 -10 4 -35z"/>
<path d="M1590 1784 c0 -4 23 -51 51 -105 165 -314 461 -578 795 -709 660
-258 1402 -38 1817 537 51 72 156 256 157 276 0 4 -12 7 -27 7 -25 0 -33 -10
-76 -94 -129 -248 -359 -477 -616 -609 -444 -230 -938 -230 -1382 0 -259 134
-491 365 -621 618 -38 75 -46 85 -70 85 -16 0 -28 -3 -28 -6z"/>
<path d="M2069 1729 c-46 -33 -91 -67 -99 -76 -15 -16 54 30 135 91 50 37 60
46 54 46 -3 0 -44 -27 -90 -61z"/>
<path d="M3846 1782 c26 -24 194 -142 194 -137 0 7 -187 145 -196 145 -5 0 -4
-4 2 -8z"/>
<path d="M2200 1603 l-115 -118 118 115 c109 107 122 120 114 120 -1 0 -54
-53 -117 -117z"/>
<path d="M3790 1605 c63 -63 117 -115 120 -115 2 0 -47 52 -110 115 -63 63
-117 115 -120 115 -2 0 47 -52 110 -115z"/>
<path d="M2370 1542 c-30 -42 -72 -100 -93 -129 -21 -29 -36 -53 -33 -53 7 0
189 250 185 255 -2 2 -29 -31 -59 -73z"/>
<path d="M3570 1616 c0 -10 180 -256 187 -256 2 0 -11 21 -30 48 -132 182
-157 215 -157 208z"/>
<path d="M2487 1404 c-37 -74 -67 -138 -66 -142 0 -4 32 55 70 132 39 76 69
140 67 142 -2 2 -34 -57 -71 -132z"/>
<path d="M3441 1535 c0 -5 31 -71 69 -145 38 -74 69 -130 69 -125 0 6 -31 71
-69 145 -38 74 -69 131 -69 125z"/>
<path d="M2691 1464 c0 -11 3 -14 6 -6 3 7 2 16 -1 19 -3 4 -6 -2 -5 -13z"/>
<path d="M3302 1470 c0 -8 6 -31 13 -50 7 -19 13 -28 13 -20 0 8 -6 31 -13 50
-7 19 -13 28 -13 20z"/>
<path d="M2842 1425 c0 -16 2 -22 5 -12 2 9 2 23 0 30 -3 6 -5 -1 -5 -18z"/>
<path d="M3152 1425 c0 -16 2 -22 5 -12 2 9 2 23 0 30 -3 6 -5 -1 -5 -18z"/>
<path d="M2825 1335 c-3 -31 -5 -59 -2 -61 3 -3 8 20 12 51 3 31 5 59 2 61 -3
3 -8 -20 -12 -51z"/>
<path d="M3162 1360 c0 -19 2 -27 5 -17 2 9 2 25 0 35 -3 9 -5 1 -5 -18z"/>
<path d="M2627 1268 c-14 -45 -25 -84 -23 -86 2 -2 16 33 31 78 15 45 25 83
23 85 -2 3 -16 -32 -31 -77z"/>
<path d="M3172 1295 c0 -16 2 -22 5 -12 2 9 2 23 0 30 -3 6 -5 -1 -5 -18z"/>
<path d="M3351 1314 c-1 -15 40 -136 45 -131 2 2 -7 35 -20 73 -14 38 -25 64
-25 58z"/>
<path d="M2812 1235 c0 -16 2 -22 5 -12 2 9 2 23 0 30 -3 6 -5 -1 -5 -18z"/>
<path d="M3182 1235 c0 -16 2 -22 5 -12 2 9 2 23 0 30 -3 6 -5 -1 -5 -18z"/>
<path d="M2802 1175 c0 -16 2 -22 5 -12 2 9 2 23 0 30 -3 6 -5 -1 -5 -18z"/>
<path d="M3192 1165 c0 -16 2 -22 5 -12 2 9 2 23 0 30 -3 6 -5 -1 -5 -18z"/>
</g>
</svg>
